<?xml version="1.0" standalone="no"?>
<!DOCTYPE svg PUBLIC "-//W3C//DTD SVG 20010904//EN"
 "http://www.w3.org/TR/2001/REC-SVG-20010904/DTD/svg10.dtd">
<svg version="1.0" xmlns="http://www.w3.org/2000/svg"
 width="512.000000pt" height="512.000000pt" viewBox="0 0 512.000000 512.000000"
 preserveAspectRatio="xMidYMid meet">
<metadata>
Created by potrace 1.14, written by Peter Selinger 2001-2017
</metadata>
<g transform="translate(0.000000,512.000000) scale(0.100000,-0.100000)"
fill="#000000" stroke="none">
<path d="M0 2560 l0 -2560 2560 0 2560 0 0 2560 0 2560 -2560 0 -2560 0 0
-2560z m2721 513 c96 -43 164 -133 176 -234 l6 -49 -91 0 -92 0 -5 28 c-16 75
-60 113 -137 119 -61 5 -110 -16 -142 -60 -20 -27 -21 -41 -21 -317 0 -276 1
-290 21 -317 60 -82 197 -83 257 -1 16 21 20 44 21 110 l1 83 -87 3 -88 3 0
79 0 80 181 0 181 0 -4 -182 c-3 -176 -4 -185 -30 -234 -31 -59 -84 -108 -147
-138 -38 -17 -66 -21 -156 -21 -100 0 -115 2 -167 28 -64 32 -111 80 -142 146
-20 43 -21 66 -24 339 -3 240 0 303 12 346 29 99 105 175 204 203 69 19 216
12 273 -14z m-1244 -353 c17 -201 32 -390 33 -420 3 -108 18 -16 60 350 23
201 44 382 47 403 l6 38 76 -3 76 -3 50 -444 49 -445 38 440 c20 241 37 443
37 447 1 4 36 7 79 5 75 -3 77 -4 75 -28 -10 -104 -105 -990 -109 -1007 -4
-22 -9 -23 -103 -23 l-99 0 -6 48 c-4 26 -25 222 -47 437 -22 214 -42 392 -45
394 -2 2 -4 -13 -4 -33 0 -21 -20 -214 -45 -428 -25 -215 -45 -397 -45 -404 0
-11 -22 -14 -105 -14 -93 0 -105 2 -105 18 0 9 -23 235 -50 501 -28 266 -50
497 -50 513 l0 29 78 -3 77 -3 32 -365z m2063 368 c1 -2 60 -238 133 -526 73
-287 131 -525 128 -527 -2 -3 -44 -5 -92 -5 -84 0 -89 1 -94 23 -3 12 -12 54
-21 92 -8 39 -20 87 -25 108 l-10 38 -136 -3 -137 -3 -7 -30 c-4 -16 -17 -74
-29 -127 l-22 -98 -95 0 c-85 0 -94 2 -89 18 3 9 62 244 131 521 69 278 128
508 131 513 4 7 233 12 234 6z"/>
<path d="M3376 2687 c-27 -122 -51 -228 -54 -234 -3 -10 21 -13 101 -13 l105
0 -15 63 c-8 34 -31 140 -52 234 l-37 173 -48 -223z"/>
</g>
</svg>
