<?xml version="1.0" standalone="no"?>
<!DOCTYPE svg PUBLIC "-//W3C//DTD SVG 20010904//EN"
 "http://www.w3.org/TR/2001/REC-SVG-20010904/DTD/svg10.dtd">
<svg version="1.0" xmlns="http://www.w3.org/2000/svg"
 width="260.000000pt" height="260.000000pt" viewBox="0 0 260.000000 260.000000"
 preserveAspectRatio="xMidYMid meet">
<metadata>
Created by potrace 1.14, written by Peter Selinger 2001-2017
</metadata>
<g transform="translate(0.000000,260.000000) scale(0.100000,-0.100000)"
fill="#000000" stroke="none">
<path d="M0 1300 l0 -1300 1300 0 1300 0 0 1300 0 1300 -1300 0 -1300 0 0
-1300z m1480 1045 c0 -4 525 -2040 536 -2077 5 -17 -6 -18 -128 -18 l-133 0
-68 280 -69 280 -316 -2 -317 -3 -69 -277 -68 -278 -135 0 c-104 0 -134 3
-131 13 2 6 126 479 274 1049 l269 1038 178 0 c97 0 177 -2 177 -5z"/>
<path d="M1290 2094 c0 -27 -46 -227 -151 -653 -54 -222 -99 -406 -99 -407 0
-2 117 -4 260 -4 143 0 260 2 260 5 0 2 -40 165 -89 362 -93 374 -161 668
-161 696 0 10 -4 17 -10 17 -5 0 -10 -7 -10 -16z"/>
</g>
</svg>
